<svg id="Capa_1" enable-background="new 0 0 512.003 512.003" height="512" viewBox="0 0 512.003 512.003" width="512" xmlns="http://www.w3.org/2000/svg"><g><g><path d="m436.981 225.822c-1.72 24.29-13.94 46.6-33.54 61.21l-105.741 78.831-68.831-68.341c-5.87-5.84-15.37-5.81-21.21.07s-5.8 15.38.08 21.22l65.641 65.181-151.381 112.851c-30.408 22.686-72.88 19.555-99.631-7.01-26.892-26.706-29.89-69.036-7.06-99.221l43.2-57.13 60.66 60.231c5.902 5.862 15.402 5.788 21.22-.07 5.83-5.88 5.8-15.38-.08-21.21l-63.541-63.1 122.401-161.871 64.511 64.051c5.867 5.827 15.39 5.8 21.21-.08 5.84-5.88 5.8-15.37-.08-21.21l-67.381-66.911 9.18-12.14c14.68-19.41 37.07-31.54 61.431-33.26 24.4-1.73 48.31 7.13 65.611 24.31 7.164 7.113 51.638 51.269 58.8 58.38 17.311 17.178 26.251 40.959 24.531 65.219z"/></g><path d="m357.48 66.811v-51.811c0-8.28 6.72-15 15-15 8.29 0 15 6.72 15 15v78.531c-13.263-13.17-18.748-19.262-30-26.72z"/><path d="m486.362 50.12-71.301 70.791c-13.219-13.122-8.247-8.184-21.29-21.14l71.451-70.94c5.88-5.83 15.38-5.8 21.21.08 5.84 5.879 5.81 15.369-.07 21.209z"/><path d="m512.002 142.051c0 8.29-6.72 15-15 15h-48.83c-7.663-11.521-13.951-17.105-26.93-30h75.761c8.279 0 14.999 6.72 14.999 15z"/></g></svg>